<?xml version="1.0" encoding="UTF-8" standalone="no"?>
<!DOCTYPE svg PUBLIC "-//W3C//DTD SVG 1.1//EN" "http://www.w3.org/Graphics/SVG/1.1/DTD/svg11.dtd">
<svg width="100%" height="100%" viewBox="0 0 1024 1024" version="1.1" xmlns="http://www.w3.org/2000/svg" xmlns:xlink="http://www.w3.org/1999/xlink" xml:space="preserve" xmlns:serif="http://www.serif.com/" style="fill-rule:evenodd;clip-rule:evenodd;stroke-linejoin:round;stroke-miterlimit:2;">
    <g id="Calque-1">
        <g transform="matrix(1.299121,0,0,1.299121,-65.369904,-153.150029)">
            <path d="M93.517,491.093L532.06,741.798L104.935,360.859L93.517,491.093ZM274.694,401.771L586.734,721.973L311.918,306.035L274.694,401.771ZM273.985,148.768L646.299,709.73L385.555,137.159L273.985,148.768ZM483.78,193.854L686.816,676.506L584.608,206.523L483.78,193.854ZM554.655,811.948C554.655,811.948 598.836,858.215 662.94,879.035C727.044,899.855 758.553,872.437 758.553,872.437C758.553,872.437 789.348,847.252 794.511,811.276C799.674,775.301 779.184,728.445 779.184,728.445C779.184,728.445 764.208,797.472 726.857,821.496C698.837,839.52 646.64,852.496 554.655,811.948Z" style="fill:rgb(1,2,0);fill-rule:nonzero;"/>
        </g>
        <g transform="matrix(1.299121,0,0,1.299121,-65.369904,-153.150029)">
            <path d="M192.384,328.468C191.887,332.46 186.102,332.46 185.606,328.468C181.817,297.986 157.805,273.974 127.323,270.185C123.332,269.689 123.332,263.904 127.323,263.408C157.805,259.619 181.817,235.607 185.606,205.125C186.102,201.134 191.887,201.134 192.384,205.125C196.172,235.607 220.185,259.619 250.667,263.408C254.658,263.904 254.658,269.689 250.667,270.185C220.185,273.974 196.172,297.986 192.384,328.468Z" style="fill:rgb(1,2,0);fill-rule:nonzero;"/>
            <g>
                <g>
                    <path d="M227.669,229.863C227.57,230.661 226.414,230.661 226.314,229.863C225.557,223.771 220.758,218.972 214.667,218.215C213.869,218.116 213.869,216.96 214.667,216.861C220.758,216.103 225.557,211.305 226.314,205.213C226.414,204.415 227.57,204.415 227.669,205.213C228.426,211.305 233.225,216.103 239.317,216.861C240.114,216.96 240.114,218.116 239.317,218.215C233.225,218.972 228.426,223.771 227.669,229.863Z" style="fill:rgb(1,2,0);fill-rule:nonzero;"/>
                </g>
                <g>
                    <path d="M248.855,242.863C248.755,243.661 247.599,243.661 247.5,242.863C246.743,236.771 241.944,231.973 235.852,231.215C235.055,231.116 235.055,229.96 235.852,229.861C241.944,229.104 246.743,224.305 247.5,218.213C247.599,217.416 248.755,217.416 248.855,218.213C249.612,224.305 254.411,229.104 260.502,229.861C261.3,229.96 261.3,231.116 260.502,231.215C254.411,231.973 249.612,236.771 248.855,242.863Z" style="fill:rgb(1,2,0);fill-rule:nonzero;"/>
                </g>
            </g>
        </g>
    </g>
</svg>
